# xmcd CD database file
#
# Track frame offsets:
#	150
#	22699
#	43022
#	66993
#	76380
#	99200
#	123772
#	135672
#	154108
#	176327
#	194601
#	218153
#	242647
#
# Disc length: 3432 seconds
#
# Revision: 0
# Processed by: cddbd v1.5.2PL0 Copyright (c) Steve Scherf et al.
# Submitted via: CDex 2.02
#
DISCID=a30d660d
DTITLE=Elina - I Never Felt This Way Before
DYEAR=1900
DGENRE=Jazz
TTITLE0=Adios My Love
TTITLE1=Acorda, Meu Amor
TTITLE2=Solitary Moon
TTITLE3=Just One of Those Things
TTITLE4=Dindi
TTITLE5=A Thousand Beautiful Things
TTITLE6=What A Little Moonlight Can Do
TTITLE7=Don't Explain
TTITLE8=Moonlight
TTITLE9=More Love
TTITLE10=Come Back as a Flower
TTITLE11=Make Sure You're Sure
TTITLE12=I Never Felt This Way Before
EXTD=
EXTT0=
EXTT1=
EXTT2=
EXTT3=
EXTT4=
EXTT5=
EXTT6=
EXTT7=
EXTT8=
EXTT9=
EXTT10=
EXTT11=
EXTT12=
PLAYORDER=
